<?xml version="1.0" standalone="no"?><!DOCTYPE svg PUBLIC "-//W3C//DTD SVG 1.1//EN" "http://www.w3.org/Graphics/SVG/1.1/DTD/svg11.dtd"><svg class="icon" width="128px" height="128.00px" viewBox="0 0 1024 1024" version="1.1" xmlns="http://www.w3.org/2000/svg"><path fill="#2c2c2c" d="M960.184067 512c0 247.526513-200.660112 448.185602-448.186625 448.185602-247.52549 0-448.185602-200.659089-448.185602-448.185602S264.472975 63.814398 511.998465 63.814398C759.524978 63.814398 960.184067 264.473487 960.184067 512zM294.146808 440.049295c25.982768-0.99977 84.10656-1.662873 174.381609-1.998517-40.972157 88.276533-104.429421 152.732543-190.370769 193.369056-3.997034 0.99977-7.830339 2.334161-11.491729 3.997034 18.987447 18.987447 34.304294 38.138622 45.968961 57.46069 63.956637-33.976836 120.746038-86.605473 170.384575-157.893076l-1.499144 205.860555 65.955154 0c-0.99977-22.984481-1.671059-87.440491-1.998517-193.369056 42.970674 58.959833 99.260701 105.428168 168.885432 139.405003 8.993838-15.989159 21.812795-36.803207 38.474266-62.457494-75.948763-21.98471-139.241274-73.277934-189.871395-153.896042-5.332449-9.993608-10.329253-20.814048-14.989389-32.477692 98.933243 0 160.891364 0.671289 185.874361 1.998517l0-60.458977-188.372252 1.499144c0-46.967708 0.663102-80.44517 1.998517-100.432387l-65.955154 0 1.499144 100.432387-188.871625-1.499144L294.148855 440.049295z" /></svg>